# xmcd CD database file
# Copyright (C) 1993-1998 Ti Kan
# 
# Track frame offsets:
#     150
#     18362
#     44490
#     70642
# 
# Disc length: 1197 seconds
# 
# Revision: 1
# Processed by: cddbd v1.4b41PL1 Copyright (c) Steve Scherf et al.
# Submitted via: DiscPlay 4.0.4
# 
DISCID=2b04ab04
DTITLE=MC 900 Ft Jesus - The City Sleeps
DYEAR=1900
DGENRE=
TTITLE0=The City Sleeps (Radio Edit)
TTITLE1=The City Sleeps (Vocal Remix)
TTITLE2=The City Sleeps (Clarinet Remix)
TTITLE3=The City Sleeps (Instrumental)
EXTD=
EXTT0=
EXTT1=
EXTT2=
EXTT3=
PLAYORDER=
